HIERARCHY
ROOT hip
{
  OFFSET 0 0 0
  CHANNELS 6 Xposition Yposition Zposition Zrotation Yrotation Xrotation
  JOINT abdomen
  {
    OFFSET 0 20.6881 -0.73152
    CHANNELS 3 Zrotation Xrotation Yrotation
    JOINT chest
    {
      OFFSET 0 11.7043 -0.48768
      CHANNELS 3 Zrotation Xrotation Yrotation
      JOINT neck
      {
        OFFSET 0 22.1894 -2.19456
        CHANNELS 3 Zrotation Xrotation Yrotation
        JOINT head
        {
          OFFSET -0.24384 7.07133 1.2192
          CHANNELS 3 Zrotation Xrotation Yrotation
          JOINT leftEye
          {
            OFFSET 4.14528 8.04674 8.04672
            CHANNELS 3 Zrotation Xrotation Yrotation
            End Site
            {
              OFFSET 1 0 0
            }
          }
          JOINT rightEye
          {
            OFFSET -3.6576 8.04674 8.04672
            CHANNELS 3 Zrotation Xrotation Yrotation
            End Site
            {
              OFFSET 1 0 0
            }
          }
        }
      }
      JOINT rCollar
      {
        OFFSET -2.68224 19.2634 -4.8768
        CHANNELS 3 Zrotation Xrotation Yrotation
        JOINT rShldr
        {
          OFFSET -8.77824 -1.95073 1.46304
          CHANNELS 3 Zrotation Xrotation Yrotation
          JOINT rForeArm
          {
            OFFSET -28.1742 -1.7115 0.48768
            CHANNELS 3 Zrotation Xrotation Yrotation
            JOINT rHand
            {
              OFFSET -22.5879 0.773209 7.07136
              CHANNELS 3 Zrotation Xrotation Yrotation
              JOINT rThumb1
              {
                OFFSET -1.2192 -0.487915 3.41376
                CHANNELS 3 Zrotation Xrotation Yrotation
                JOINT rThumb2
                {
                  OFFSET -3.37035 -0.52449 3.41376
                  CHANNELS 3 Zrotation Xrotation Yrotation
                  End Site
                  {
                    OFFSET -1.78271 -1.18214 1.43049
                  }
                }
              }
              JOINT rIndex1
              {
                OFFSET -7.75947 0.938293 5.60832
                CHANNELS 3 Zrotation Xrotation Yrotation
                JOINT rIndex2
                {
                  OFFSET -2.54057 -0.884171 1.56538
                  CHANNELS 3 Zrotation Xrotation Yrotation
                  End Site
                  {
                    OFFSET -1.62519 -0.234802 1.16502
                  }
                }
              }
              JOINT rMid1
              {
                OFFSET -8.24714 1.18213 3.41376
                CHANNELS 3 Zrotation Xrotation Yrotation
                JOINT rMid2
                {
                  OFFSET -3.10165 -0.590103 1.0647
                  CHANNELS 3 Zrotation Xrotation Yrotation
                  End Site
                  {
                    OFFSET -2.48547 -0.328903 0.83742
                  }
                }
              }
              JOINT rRing1
              {
                OFFSET -8.82822 0.546677 1.51678
                CHANNELS 3 Zrotation Xrotation Yrotation
                JOINT rRing2
                {
                  OFFSET -2.60934 -0.819778 -0.0198488
                  CHANNELS 3 Zrotation Xrotation Yrotation
                  End Site
                  {
                    OFFSET -2.33842 -0.294052 0.168128
                  }
                }
              }
              JOINT rPinky1
              {
                OFFSET -8.27202 -0.0477905 -0.4584
                CHANNELS 3 Zrotation Xrotation Yrotation
                JOINT rPinky2
                {
                  OFFSET -1.82734 -0.647385 -0.700984
                  CHANNELS 3 Zrotation Xrotation Yrotation
                  End Site
                  {
                    OFFSET -1.69225 -0.51767 -0.607171
                  }
                }
              }
            }
          }
        }
      }
      JOINT lCollar
      {
        OFFSET 2.68224 19.2634 -4.8768
        CHANNELS 3 Zrotation Xrotation Yrotation
        JOINT lShldr
        {
          OFFSET 8.77824 -1.95073 1.46304
          CHANNELS 3 Zrotation Xrotation Yrotation
          JOINT lForeArm
          {
            OFFSET 28.1742 -1.7115 0.48768
            CHANNELS 3 Zrotation Xrotation Yrotation
            JOINT lHand
            {
              OFFSET 22.5879 0.773209 7.07136
              CHANNELS 3 Zrotation Xrotation Yrotation
              JOINT lThumb1
              {
                OFFSET 1.2192 -0.487915 3.41376
                CHANNELS 3 Zrotation Xrotation Yrotation
                JOINT lThumb2
                {
                  OFFSET 3.37035 -0.52449 3.41376
                  CHANNELS 3 Zrotation Xrotation Yrotation
                  End Site
                  {
                    OFFSET 1.78271 -1.18214 1.43049
                  }
                }
              }
              JOINT lIndex1
              {
                OFFSET 7.75947 0.938293 5.60832
                CHANNELS 3 Zrotation Xrotation Yrotation
                JOINT lIndex2
                {
                  OFFSET 2.54057 -0.884171 1.56538
                  CHANNELS 3 Zrotation Xrotation Yrotation
                  End Site
                  {
                    OFFSET 1.62519 -0.234802 1.16502
                  }
                }
              }
              JOINT lMid1
              {
                OFFSET 8.24714 1.18213 3.41376
                CHANNELS 3 Zrotation Xrotation Yrotation
                JOINT lMid2
                {
                  OFFSET 3.10165 -0.590103 1.0647
                  CHANNELS 3 Zrotation Xrotation Yrotation
                  End Site
                  {
                    OFFSET 2.48547 -0.328903 0.83742
                  }
                }
              }
              JOINT lRing1
              {
                OFFSET 8.82822 0.546677 1.51678
                CHANNELS 3 Zrotation Xrotation Yrotation
                JOINT lRing2
                {
                  OFFSET 2.60934 -0.819778 -0.0198488
                  CHANNELS 3 Zrotation Xrotation Yrotation
                  End Site
                  {
                    OFFSET 2.33842 -0.294052 0.168128
                  }
                }
              }
              JOINT lPinky1
              {
                OFFSET 8.27202 -0.0477905 -0.4584
                CHANNELS 3 Zrotation Xrotation Yrotation
                JOINT lPinky2
                {
                  OFFSET 1.82734 -0.647385 -0.700984
                  CHANNELS 3 Zrotation Xrotation Yrotation
                  End Site
                  {
                    OFFSET 1.69225 -0.51767 -0.607171
                  }
                }
              }
            }
          }
        }
      }
    }
  }
  JOINT rButtock
  {
    OFFSET -8.77824 4.35084 1.2192
    CHANNELS 3 Zrotation Xrotation Yrotation
    JOINT rThigh
    {
      OFFSET 0 -1.70687 -2.19456
      CHANNELS 3 Zrotation Xrotation Yrotation
      JOINT rShin
      {
        OFFSET 0 -36.8199 0.73152
        CHANNELS 3 Zrotation Xrotation Yrotation
        JOINT rFoot
        {
          OFFSET 0.73152 -45.1104 -5.12064
          CHANNELS 3 Zrotation Xrotation Yrotation
          End Site
          {
            OFFSET -1.1221 -3.69964 12.103
          }
        }
      }
    }
  }
  JOINT lButtock
  {
    OFFSET 8.77824 4.35084 1.2192
    CHANNELS 3 Zrotation Xrotation Yrotation
    JOINT lThigh
    {
      OFFSET 0 -1.70687 -2.19456
      CHANNELS 3 Zrotation Xrotation Yrotation
      JOINT lShin
      {
        OFFSET 0 -36.8199 0.73152
        CHANNELS 3 Zrotation Xrotation Yrotation
        JOINT lFoot
        {
          OFFSET -0.73152 -45.1104 -5.12064
          CHANNELS 3 Zrotation Xrotation Yrotation
          End Site
          {
            OFFSET 1.1221 -3.69964 12.103
          }
        }
      }
    }
  }
}
MOTION
Frames:	6
Frame Time:	0.00833333
280.209 83.2814 -55.8022 1079.66 179.362 1076.55 -3.6955 2.52516 9.19966 -2.54056 -1.13312 2.70996 2.00053 -6.75384 0.0511841 1.64114 -1.8303 -0.935696 -0.0 0.0 0.0 -0.0 0.0 0.0 9.65412e-15 2.37113e-14 -5.39588e-14 78.1492 38.9462 6.09712 -15.933 -8.62481 29.5319 -0.00906654 2.70938 0.381069 1.07979e-10 3.88114e-10 -3.27245e-10 1.85649e-10 6.73265e-10 -5.66699e-10 1.07977e-10 3.88116e-10 -3.27254e-10 7.73091 5.47488 0.417314 1.07978e-10 3.88121e-10 -3.27246e-10 2.90554 0.965183 0.102902 1.0798e-10 3.88116e-10 -3.27245e-10 10.2786 0.731801 0.0259123 1.07974e-10 3.88117e-10 -3.27232e-10 2.22167 -0.733487 -0.20892 9.62712e-15 2.37026e-14 -5.41766e-14 -79.5616 24.0343 7.17835 11.5209 -5.11757 -20.6875 0.241506 13.8497 -1.98574 -9.16534e-11 4.05982e-10 -1.2339e-10 -1.60138e-10 7.02207e-10 -2.12406e-10 -9.1664e-11 4.05977e-10 -1.23388e-10 -7.73091 5.47488 -0.417314 -9.16534e-11 4.05981e-10 -1.23395e-10 -2.90554 0.965183 -0.102902 -9.16558e-11 4.05981e-10 -1.23397e-10 -10.2786 0.731801 -0.0259123 -9.16527e-11 4.05982e-10 -1.23398e-10 -2.22167 -0.733487 0.20892 -2.03217e-16 0.0 -3.88251e-19 -0.651432 17.2878 1.43369 -0.074069 26.8818 0.663895 0.0233281 -8.07582 3.28226 2.03217e-16 0.0 3.88251e-19 1.33203 -9.13786 15.2073 0.00784959 5.72559 -0.0964006 0.785981 1.8664 5.10252
279.996 83.3321 -56.4626 1079.47 179.266 1076.58 -3.69762 2.74019 9.0581 -2.5283 -1.18392 2.6632 1.99122 -6.75859 0.101304 1.56824 -1.6092 -0.846208 -0.0 0.0 0.0 -0.0 0.0 0.0 -2.13919e-15 2.58469e-14 -4.60186e-14 78.9676 38.8602 4.93148 -15.8712 -8.56803 29.4011 -0.00868859 2.66044 0.374171 5.37393e-10 -2.8722e-10 -1.97223e-10 9.29129e-10 -4.92019e-10 -3.43905e-10 5.37391e-10 -2.87217e-10 -1.97233e-10 7.73091 5.47488 0.417314 5.37391e-10 -2.87218e-10 -1.97226e-10 2.90554 0.965183 0.102902 5.37394e-10 -2.87217e-10 -1.97224e-10 10.2786 0.731801 0.0259123 5.37388e-10 -2.87217e-10 -1.9721e-10 2.22167 -0.733487 -0.20892 -2.13477e-15 2.58381e-14 -4.62174e-14 -79.402 24.2635 6.64275 11.5781 -5.15712 -20.7963 0.237905 13.7574 -1.9719 1.09226e-10 5.26092e-10 1.56792e-10 1.90111e-10 9.10831e-10 2.69665e-10 1.09218e-10 5.26088e-10 1.56795e-10 -7.73091 5.47488 -0.417314 1.09228e-10 5.26093e-10 1.56789e-10 -2.90554 0.965183 -0.102902 1.09228e-10 5.26092e-10 1.56785e-10 -10.2786 0.731801 -0.0259123 1.09227e-10 5.26094e-10 1.56782e-10 -2.22167 -0.733487 0.20892 -2.03217e-16 0.0 -3.88251e-19 -0.862152 16.9884 1.28765 -0.0956452 28.2166 0.672876 -0.0581702 -6.67944 3.2043 2.03217e-16 0.0 3.88251e-19 1.25125 -8.49702 15.4364 0.0096799 5.99756 -0.0892475 0.784846 1.60013 4.60997
279.83 83.4092 -57.1306 1079.4 179.377 1076.52 -3.65993 2.87371 9.02566 -2.56861 -1.24498 2.6462 2.00474 -6.74093 0.144186 1.45566 -1.42701 -0.778167 -0.0 0.0 0.0 -0.0 0.0 0.0 -1.279e-14 1.53563e-14 -2.00175e-14 79.7998 38.5908 3.75837 -15.7865 -8.49056 29.2224 -0.0100055 2.91744 0.410351 5.61111e-10 -5.64114e-10 -2.67091e-12 9.70707e-10 -9.71428e-10 -7.40896e-12 5.61108e-10 -5.64109e-10 -2.67968e-12 7.73091 5.47488 0.417314 5.6111e-10 -5.64114e-10 -2.67238e-12 2.90554 0.965183 0.102902 5.61112e-10 -5.64109e-10 -2.67143e-12 10.2786 0.731801 0.0259123 5.61106e-10 -5.64109e-10 -2.65768e-12 2.22167 -0.733487 -0.20892 -1.27888e-14 1.53476e-14 -2.02228e-14 -79.2272 24.7523 6.16477 11.6962 -5.2384 -21.0227 0.226533 13.443 -1.92502 1.98543e-10 4.05699e-10 3.06285e-10 3.46065e-10 7.03051e-10 5.27315e-10 1.98537e-10 4.05695e-10 3.06287e-10 -7.73091 5.47488 -0.417314 1.98546e-10 4.057e-10 3.06282e-10 -2.90554 0.965183 -0.102902 1.98545e-10 4.05698e-10 3.06278e-10 -10.2786 0.731801 -0.0259123 1.98544e-10 4.05701e-10 3.06276e-10 -2.22167 -0.733487 0.20892 -2.03217e-16 0.0 -3.88251e-19 -1.10647 16.5114 1.26019 -0.118669 29.624 0.6811 -0.0995336 -5.00681 3.506 2.03217e-16 0.0 3.88251e-19 1.10659 -7.93427 15.2675 0.0107145 6.14227 -0.0790778 0.80959 1.25492 4.6163
279.725 83.465 -57.8105 1079.6 179.357 1076.43 -3.561 2.97048 9.06213 -2.64443 -1.31358 2.64728 2.02849 -6.7115 0.181972 1.31184 -1.26544 -0.72314 -0.0 0.0 0.0 -0.0 0.0 0.0 -2.33021e-14 -3.56121e-15 1.90833e-14 80.6097 38.2001 2.59317 -15.6871 -8.40007 29.0138 -0.0133213 3.38427 0.476142 3.55049e-10 -6.562e-10 2.53623e-10 6.14824e-10 -1.13321e-09 4.37088e-10 3.55047e-10 -6.56194e-10 2.53616e-10 7.73091 5.47488 0.417314 3.5505e-10 -6.56202e-10 2.53626e-10 2.90554 0.965183 0.102902 3.55052e-10 -6.56193e-10 2.53623e-10 10.2786 0.731801 0.0259123 3.55045e-10 -6.56194e-10 2.53637e-10 2.22167 -0.733487 -0.20892 -2.33269e-14 -3.56958e-15 1.88566e-14 -79.0392 25.408 5.71113 11.8557 -5.34819 -21.3307 0.210914 12.983 -1.85675 2.30357e-10 1.3007e-10 4.02761e-10 4.02029e-10 2.26604e-10 6.94143e-10 2.30351e-10 1.30065e-10 4.02762e-10 -7.73091 5.47488 -0.417314 2.30358e-10 1.30069e-10 4.02758e-10 -2.90554 0.965183 -0.102902 2.30355e-10 1.30068e-10 4.02756e-10 -10.2786 0.731801 -0.0259123 2.30358e-10 1.30071e-10 4.02754e-10 -2.22167 -0.733487 0.20892 -2.03217e-16 0.0 -3.88251e-19 -1.33573 15.9096 1.29927 -0.143442 31.0989 0.6897 -0.1471 -3.14857 4.02901 2.03217e-16 0.0 3.88251e-19 0.969823 -7.41348 14.8604 0.0111493 6.21634 -0.0669459 0.856126 0.8567 4.93266
279.578 83.5316 -58.4715 1079.67 179.328 1076.17 -3.55768 3.06379 9.0983 -2.68319 -1.37839 2.64881 2.0649 -6.68732 0.228704 1.15761 -1.1209 -0.654055 -0.0 0.0 0.0 -0.0 0.0 0.0 -2.83932e-14 -2.58641e-14 5.58484e-14 81.3595 37.808 1.47759 -15.5852 -8.30766 28.8011 -0.0178149 3.85695 0.542858 3.29476e-11 -5.53649e-10 4.44887e-10 5.80088e-11 -9.58837e-10 7.69594e-10 3.29464e-11 -5.53642e-10 4.44883e-10 7.73091 5.47488 0.417314 3.29508e-11 -5.53652e-10 4.44895e-10 2.90554 0.965183 0.102902 3.29521e-11 -5.53641e-10 4.44889e-10 10.2786 0.731801 0.0259123 3.29445e-11 -5.53642e-10 4.44903e-10 2.22167 -0.733487 -0.20892 -2.84456e-14 -2.58725e-14 5.56019e-14 -78.8418 26.1261 5.25675 12.0408 -5.477 -21.6894 0.193961 12.4539 -1.77863 1.91617e-10 -2.12846e-10 4.09653e-10 3.35192e-10 -3.66531e-10 7.0681e-10 1.91611e-10 -2.1285e-10 4.09653e-10 -7.73091 5.47488 -0.417314 1.91618e-10 -2.12847e-10 4.0965e-10 -2.90554 0.965183 -0.102902 1.9161e-10 -2.12849e-10 4.0965e-10 -10.2786 0.731801 -0.0259123 1.91618e-10 -2.12844e-10 4.09649e-10 -2.22167 -0.733487 0.20892 -2.03217e-16 0.0 -3.88251e-19 -1.64314 15.2477 1.35782 -0.169403 32.6094 0.699974 -0.232669 -1.22944 4.56133 2.03217e-16 0.0 3.88251e-19 0.768088 -6.90611 14.4134 0.0115129 6.27123 -0.0542604 0.911747 0.440597 5.29836
279.433 83.5588 -59.1443 1079.41 179.142 1076.07 -3.80636 3.18699 9.06498 -2.61241 -1.42808 2.63317 2.11644 -6.68541 0.298429 1.01356 -0.989855 -0.543844 -0.0 0.0 0.0 -0.0 0.0 0.0 -2.27812e-14 -4.6511e-14 7.48424e-14 82.0244 37.5361 0.445005 -15.4931 -8.22466 28.6097 -0.0209809 4.13153 0.581667 -2.91453e-10 -2.46633e-10 4.44352e-10 -5.03205e-10 -4.29779e-10 7.7012e-10 -2.91454e-10 -2.46625e-10 4.44349e-10 7.73091 5.47488 0.417314 -2.91449e-10 -2.46636e-10 4.44362e-10 2.90554 0.965183 0.102902 -2.91448e-10 -2.46623e-10 4.44354e-10 10.2786 0.731801 0.0259123 -2.91455e-10 -2.46624e-10 4.44368e-10 2.22167 -0.733487 -0.20892 -2.28413e-14 -4.65203e-14 7.45939e-14 -78.6411 26.8014 4.77706 12.2361 -5.61555 -22.0678 0.177882 11.9326 -1.70194 6.92757e-11 -5.35097e-10 2.90394e-10 1.22748e-10 -9.24377e-10 5.01977e-10 6.92701e-11 -5.35101e-10 2.90394e-10 -7.73091 5.47488 -0.417314 6.92763e-11 -5.35098e-10 2.90391e-10 -2.90554 0.965183 -0.102902 6.92666e-11 -5.351e-10 2.90393e-10 -10.2786 0.731801 -0.0259123 6.92767e-11 -5.35095e-10 2.90391e-10 -2.22167 -0.733487 0.20892 -2.03217e-16 0.0 -3.88251e-19 -2.12404 14.5899 1.38932 -0.196131 34.1237 0.713261 -0.356474 0.627674 4.89184 2.03217e-16 0.0 3.88251e-19 0.421759 -6.38611 14.124 0.012299 6.35838 -0.0424267 0.955923 0.0411369 5.45272
